<mxfile host="app.diagrams.net" modified="2024-04-24T08:27:19.093Z" agent="Mozilla/5.0 (Windows NT 10.0; WOW64) AppleWebKit/537.36 (KHTML, like Gecko) Chrome/124.0.6367.61 Safari/537.36 NetHelper70" etag="1dW6SvJQsrS_VI1eHzRi" version="24.2.2" type="github">
  <diagram name="페이지-1" id="JWyKKp6nfTICBsnojCP5">
    <mxGraphModel dx="1434" dy="756" grid="1" gridSize="10" guides="1" tooltips="1" connect="1" arrows="1" fold="1" page="1" pageScale="1" pageWidth="827" pageHeight="1169" math="0" shadow="0">
      <root>
        <mxCell id="0" />
        <mxCell id="1" parent="0" />
        <mxCell id="y0M5lhtuxYC9Bl8y9-jR-1" value="&lt;div&gt;Topic&lt;/div&gt;&lt;div&gt;&lt;br&gt;&lt;/div&gt;" style="rounded=1;whiteSpace=wrap;html=1;absoluteArcSize=1;arcSize=14;strokeWidth=2;" vertex="1" parent="1">
          <mxGeometry x="40" y="40" width="200" height="80" as="geometry" />
        </mxCell>
      </root>
    </mxGraphModel>
  </diagram>
</mxfile>
